HIERARCHY
ROOT Hips
{
	OFFSET	0.00	0.00	0.00
	CHANNELS 6 Xposition Yposition Zposition Zrotation Xrotation Yrotation
	JOINT LeftUpLeg
	{
		OFFSET	 0.126116	-0.014019	-0.065224
		CHANNELS 3 Zrotation Xrotation Yrotation
		JOINT LeftLeg
		{
			OFFSET	 0.000000	 0.000000	 0.569914
			CHANNELS 3 Zrotation Xrotation Yrotation
			JOINT LeftFoot
			{
				OFFSET	 0.000000	 0.000000	 0.544423
				CHANNELS 3 Zrotation Xrotation Yrotation
				JOINT LeftToeBase
				{
					OFFSET	 0.000000	 0.000000	 0.207117
					CHANNELS 3 Zrotation Xrotation Yrotation
					End Site
					{
						OFFSET	 0.000000	 0.000000	 0.207117
					}
				}
			}
		}
	}
	JOINT RightUpLeg
	{
		OFFSET	-0.124023	-0.008373	-0.065224
		CHANNELS 3 Zrotation Xrotation Yrotation
		JOINT RightLeg
		{
			OFFSET	 0.000000	 0.000000	 0.570047
			CHANNELS 3 Zrotation Xrotation Yrotation
			JOINT RightFoot
			{
				OFFSET	 0.000000	 0.000000	 0.544354
				CHANNELS 3 Zrotation Xrotation Yrotation
				JOINT RightToeBase
				{
					OFFSET	 0.000000	 0.000000	 0.207540
					CHANNELS 3 Zrotation Xrotation Yrotation
					End Site
					{
						OFFSET	 0.000000	 0.000000	 0.207540
					}
				}
			}
		}
	}
	JOINT Spine
	{
		OFFSET	 0.000184	-0.007763	 0.117403
		CHANNELS 3 Zrotation Xrotation Yrotation
		JOINT Spine1
		{
			OFFSET	 0.000000	 0.000000	 0.137269
			CHANNELS 3 Zrotation Xrotation Yrotation
			JOINT Spine2
			{
				OFFSET	 0.000000	 0.000000	 0.156879
				CHANNELS 3 Zrotation Xrotation Yrotation
				JOINT LeftShoulder
				{
					OFFSET	 0.080501	-0.002496	 0.160144
					CHANNELS 3 Zrotation Xrotation Yrotation
					JOINT LeftArm
					{
						OFFSET	 0.000000	 0.000000	 0.164363
						CHANNELS 3 Zrotation Xrotation Yrotation
						JOINT LeftForeArm
						{
							OFFSET	 0.000000	 0.000000	 0.364576
							CHANNELS 3 Zrotation Xrotation Yrotation
							JOINT LeftHand
							{
								OFFSET	 0.000000	 0.000000	 0.360812
								CHANNELS 3 Zrotation Xrotation Yrotation
								JOINT LeftHandIndex1
								{
									OFFSET	 0.000000	 0.000000	 0.086006
									CHANNELS 3 Zrotation Xrotation Yrotation
									JOINT LeftHandIndex2
									{
										OFFSET	 0.000000	 0.000000	 0.047236
										CHANNELS 3 Zrotation Xrotation Yrotation
										JOINT LeftHandIndex3
										{
											OFFSET	-0.004284	-0.000551	 0.038166
											CHANNELS 3 Zrotation Xrotation Yrotation
											End Site
											{
												OFFSET	-0.004284	-0.000551	 0.038166
											}
										}
									}
								}
							}
						}
					}
				}
				JOINT Neck
				{
					OFFSET	 0.000000	 0.000000	 0.176489
					CHANNELS 3 Zrotation Xrotation Yrotation
					JOINT Head
					{
						OFFSET	 0.000000	-0.001747	 0.077940
						CHANNELS 3 Zrotation Xrotation Yrotation
						End Site
						{
							OFFSET	 0.000000	-0.001747	 0.077940
						}
					}
				}
				JOINT RightShoulder
				{
					OFFSET	-0.080363	 0.000306	 0.159706
					CHANNELS 3 Zrotation Xrotation Yrotation
					JOINT RightArm
					{
						OFFSET	 0.000000	 0.000000	 0.164196
						CHANNELS 3 Zrotation Xrotation Yrotation
						JOINT RightForeArm
						{
							OFFSET	 0.000000	 0.000000	 0.365611
							CHANNELS 3 Zrotation Xrotation Yrotation
							JOINT RightHand
							{
								OFFSET	 0.000000	 0.000000	 0.360648
								CHANNELS 3 Zrotation Xrotation Yrotation
								JOINT RightHandIndex1
								{
									OFFSET	 0.000000	 0.000000	 0.069977
									CHANNELS 3 Zrotation Xrotation Yrotation
									JOINT RightHandIndex2
									{
										OFFSET	 0.000000	 0.000000	 0.052305
										CHANNELS 3 Zrotation Xrotation Yrotation
										JOINT RightHandIndex3
										{
											OFFSET	 0.009002	-0.000782	 0.042196
											CHANNELS 3 Zrotation Xrotation Yrotation
											End Site
											{
												OFFSET	 0.009002	-0.000782	 0.042196
											}
										}
									}
								}
							}
						}
					}
				}
			}
		}
	}
}
MOTION
Frames:    7
Frame Time: 0.03333334
 6.546966	 7.260359	-0.231966	-82.739880	 0.694469	 3.693969	 5.040597	-4.075825	 176.494700	-11.174360	-33.864070	-5.140916	 171.979000	 86.460060	 179.422300	-2.376952	 30.279160	-0.039987	 1.765244	-12.708550	 178.985400	 3.678856	-47.721570	 5.750496	-175.561200	 81.961730	-178.489600	 2.403633	 22.164700	-0.129784	 6.486784	 0.068569	-1.552047	 11.956540	-2.595195	 0.686996	 14.799170	-4.571239	 1.573799	-91.809820	 77.598720	 179.141800	 36.665960	 69.861920	-39.651760	-8.038939	-4.010409	-20.110650	 5.825884	-2.210085	-5.337499	-3.812334	 37.924440	-2.927599	-2.450526	 36.184240	 0.754587	-1.378229	 35.397820	-2.634230	 0.486011	 6.015011	-3.217463	 4.052099	-13.789170	-0.544236	 89.764930	 79.274960	-179.641800	-36.340980	 70.390930	 39.074070	 4.279867	-7.777900	 30.516660	-11.300110	-3.190096	 9.598496	 6.437017	 35.671460	-0.771858	 2.830251	 35.756010	-7.813440	-2.350882	 35.473990	 5.254307
 6.560136	 7.258840	-0.232938	-82.487670	 0.813513	 3.732958	 5.001881	-4.413787	 176.560700	-10.920270	-34.335530	-5.082129	 171.972100	 86.043840	 179.637200	-2.375238	 30.596210	-0.047034	 1.877939	-13.045250	 178.972400	 4.041740	-48.481580	 6.189191	-176.146400	 81.413600	-177.688500	 2.403285	 22.361580	-0.125809	 6.338096	 0.010801	-1.597360	 11.899870	-2.810520	 0.636923	 14.696750	-4.817428	 1.594274	-91.807160	 77.639690	 179.174100	 36.594090	 69.712440	-39.685320	-8.232716	-4.006659	-20.734520	 5.541090	-2.186285	-5.346092	-3.812334	 37.924440	-2.927599	-2.450526	 36.184240	 0.754587	-1.378229	 35.397820	-2.634230	 0.446023	 5.586481	-3.523202	 4.007269	-13.477080	-0.270202	 89.764770	 79.230960	-179.621400	-36.308190	 70.504620	 39.192290	 4.321021	-7.672622	 29.940490	-11.308120	-3.173832	 9.602884	 6.437017	 35.671460	-0.771858	 2.830251	 35.756010	-7.813440	-2.350882	 35.473990	 5.254307
 6.560179	 7.253952	-0.234034	-82.628880	 0.842345	 3.566710	 5.212802	-4.703277	 176.836700	-10.794240	-34.793920	-4.921647	 172.461200	 85.660450	 179.498900	-2.374149	 30.794860	-0.051468	 2.199434	-14.227130	 179.206500	 4.525471	-50.706150	 7.085664	-176.260900	 81.131130	-177.316300	 2.400190	 23.814780	-0.096217	 6.054758	 0.344918	-1.391695	 11.647150	-3.067535	 0.626478	 14.339720	-5.141732	 1.595590	-91.798770	 77.812830	 179.257700	 36.679320	 69.433880	-40.173650	-8.441115	-3.943708	-21.118730	 5.178247	-2.155927	-5.357400	-3.812334	 37.924440	-2.927599	-2.450526	 36.184240	 0.754587	-1.378229	 35.397820	-2.634230	 0.112094	 5.585623	-3.156132	 3.665384	-13.759690	-0.862468	 89.768550	 79.048900	-179.636900	-36.494250	 70.595150	 39.774100	 4.430987	-7.576674	 29.488580	-11.268740	-3.142395	 9.612178	 6.437017	 35.671460	-0.771858	 2.830251	 35.756010	-7.813440	-2.350882	 35.473990	 5.254307
 6.560262	 7.247880	-0.235381	-83.010010	 0.882881	 3.002396	 5.865533	-4.781927	 177.445500	-11.053560	-35.004930	-4.647727	 174.806500	 85.413020	 177.638900	-2.372295	 31.121780	-0.058798	 2.322748	-16.874230	 179.973000	 5.652212	-55.128070	 8.702393	-175.837800	 81.642550	-177.574600	 2.386497	 27.963460	-0.009176	 5.794858	 0.971435	-0.803827	 11.469230	-3.298639	 0.745306	 14.132340	-5.571143	 1.625054	-91.789380	 78.073850	 179.319700	 36.850980	 69.051170	-41.086960	-8.680135	-3.832438	-21.226210	 4.774207	-2.127018	-5.369427	-3.812334	 37.924440	-2.927599	-2.450526	 36.184240	 0.754587	-1.378229	 35.397820	-2.634230	-0.012170	 5.383827	-3.208761	 3.546568	-14.070420	-1.002080	 89.774470	 78.776120	-179.696100	-36.881250	 70.644890	 40.647400	 4.645916	-7.436557	 29.191990	-11.064930	-3.095858	 9.626421	 6.437017	 35.671460	-0.771858	 2.830251	 35.756010	-7.813440	-2.350882	 35.473990	 5.254307
 6.560189	 7.240219	-0.237616	-83.726100	 0.922015	 2.067193	 6.703282	-4.451093	 178.553600	-11.649150	-34.739250	-4.324148	 176.382800	 85.378440	 176.475400	-2.370031	 31.508890	-0.067521	 2.764751	-21.787470	-178.792400	 8.825027	-62.825280	 12.826440	-173.250500	 84.375520	-179.837200	 2.347844	 34.540220	 0.139487	 5.528163	 1.753664	 0.128701	 11.343850	-3.483956	 1.014508	 13.969210	-6.098493	 1.670157	-91.780500	 78.369610	 179.370800	 36.942070	 68.539310	-42.247560	-8.913799	-3.688273	-21.034660	 4.362888	-2.099231	-5.381679	-3.812334	 37.924440	-2.927599	-2.450526	 36.184240	 0.754587	-1.378229	 35.397820	-2.634230	-0.026141	 5.307497	-3.368150	 3.497225	-14.676650	-1.079407	 89.779030	 78.471540	-179.730500	-37.487080	 70.649130	 41.758330	 4.920356	-7.274603	 29.111730	-10.706810	-3.029634	 9.647257	 6.437017	 35.671460	-0.771858	 2.830251	 35.756010	-7.813440	-2.350882	 35.473990	 5.254307
 6.558265	 7.231870	-0.240663	-84.587800	 0.987755	 1.107194	 7.832872	-3.625540	 179.660600	-12.381080	-33.814240	-3.819502	 178.314200	 85.515240	 175.069400	-2.363423	 32.570740	-0.091741	 3.211480	-28.482470	-177.777600	 19.311980	-71.230330	 24.064650	-164.724300	 89.551070	 172.646200	 2.381401	 29.098170	 0.015421	 5.085445	 2.409027	 1.081284	 11.199450	-3.552642	 1.340858	 13.838040	-6.641483	 1.719632	-91.774670	 78.576990	 179.324000	 36.713210	 67.873730	-43.174330	-9.201897	-3.466850	-20.560260	 3.801231	-2.063783	-5.397775	-3.812334	 37.924440	-2.927599	-2.450526	 36.184240	 0.754587	-1.378229	 35.397820	-2.634230	 0.020504	 5.307187	-3.572911	 3.533471	-15.388700	-1.047728	 89.781380	 78.267140	-179.734500	-38.449620	 70.588930	 43.245590	 5.123039	-7.114717	 29.147570	-10.282740	-2.924375	 9.682202	 6.437017	 35.671460	-0.771858	 2.830251	 35.756010	-7.813440	-2.350882	 35.473990	 5.254307
 6.553484	 7.224734	-0.242601	-84.951750	 1.024967	 0.577386	 8.657259	-2.907561	-179.884800	-12.643990	-32.705610	-3.297455	-179.967800	 85.783180	 173.893700	-2.353836	 33.958770	-0.124082	 2.947239	-34.033760	-177.558500	 31.095920	-74.698000	 35.683220	-132.933800	 89.409840	 142.118400	 2.385167	 28.273030	-0.002500	 4.237139	 2.998852	 1.624486	 10.853250	-3.757257	 1.468852	 13.766690	-7.048620	 1.759393	-91.766720	 78.788710	 179.183700	 36.810980	 67.295890	-44.198950	-9.449856	-3.234874	-20.098670	 3.178115	-2.022566	-5.415850	-3.812334	 37.924440	-2.927599	-2.450526	 36.184240	 0.754587	-1.378229	 35.397820	-2.634230	 0.020633	 5.113662	-3.921179	 3.785339	-15.761580	-0.487329	 89.782290	 78.050140	-179.976800	-38.828860	 70.613590	 43.705400	 5.265179	-6.971486	 29.157300	-9.897804	-2.831156	 9.709160	 6.437017	 35.671460	-0.771858	 2.830251	 35.756010	-7.813440	-2.350882	 35.473990	 5.254307
